# xmcd
#
# Track frame offsets:
#	150
#	9343
#	18522
#	26893
#	37493
#	49315
#	60200
#	68667
#	77504
#	90088
#	98923
#	106977
#	116020
#	126103
#	133631
#	144845
#	155766
#	163581
#	173172
#	181348
#
# Disc length: 2556 seconds
#
# Revision: 0
# Processed by: cddbd v1.5.2PL0 Copyright (c) Steve Scherf et al.
# Submitted via: EasyCDDAExtractor 15.2.5.1
#
DISCID=0109fa14
DTITLE=Adriano Celentano - The Best of Adriano Celentano
DYEAR=1900
DGENRE=Rock and Roll
TTITLE0=Il tuo bacio é come un rock
TTITLE1=Impazzivo per te
TTITLE2=Rock matto
TTITLE3=Il ribelle
TTITLE4=Ciao ti diro'
TTITLE5=Furore
TTITLE6=Movimento di rock
TTITLE7=I ragazzi del juke box
TTITLE8=Buona sera signorina
TTITLE9=Desidero te
TTITLE10=Pitagora
TTITLE11=Rip it up
TTITLE12=La gatta che scotta
TTITLE13=Piccola
TTITLE14=Jailhouse rock
TTITLE15=A cosa serve soffrire
TTITLE16=Ritorna lo shimmy
TTITLE17=Cosi' no
TTITLE18=Happy days are here again
TTITLE19=Teddy girl
EXTD=
EXTT0=
EXTT1=
EXTT2=
EXTT3=
EXTT4=
EXTT5=
EXTT6=
EXTT7=
EXTT8=
EXTT9=
EXTT10=
EXTT11=
EXTT12=
EXTT13=
EXTT14=
EXTT15=
EXTT16=
EXTT17=
EXTT18=
EXTT19=
PLAYORDER=
